<svg xmlns="http://www.w3.org/2000/svg" width="344.71" height="263.62" viewBox="0 0 344.71 263.62"><defs><style>.cls-1{fill:#90cddc;}.cls-2{fill:#63b3bb;}.cls-3{fill:#88c7d1;}.cls-4{fill:#8ac4d2;}.cls-5{fill:#5faab1;}.cls-6{fill:#81bec8;}.cls-7{fill:#ffd800;}</style></defs><title>calendarMoonMobileArtboard 1</title><g id="moon"><circle class="cls-1" cx="172.35" cy="84.49" r="84.49"/><path class="cls-2" d="M116.49,36.39a12.42,12.42,0,0,0-3.83,6.42c-.6,3,.21,6-.24,9-.58,3.85-3.15,7-5.09,10.44s-3.24,7.73-1.25,11.08c2.2,3.71,7.53,4.36,11.58,2.85s7.26-4.59,10.78-7.08c4.47-3.17,9.65-5.56,13-9.86,5.22-6.66,4.35-17.3-1.89-23S122.66,30.6,116.49,36.39Z"/><path class="cls-2" d="M183.72,11.15c-3.93-.6-8.17-.64-11.64,1.3s-5.78,6.38-4.22,10,5.84,5,9.3,6.85c2.83,1.54,5.33,3.67,8.24,5.05a18.47,18.47,0,0,0,12.67,1.11c4-1.1,7.89-4.08,8.37-8.21a9.4,9.4,0,0,0-2.44-7,19.82,19.82,0,0,0-6.16-4.51A46,46,0,0,0,183.72,11.15Z"/><path class="cls-2" d="M214,55.32c2.8-3.36,6.53-5.8,10.21-8.18,4.25-2.75,9.48-5.6,14.08-3.49,4.07,1.87,5.62,6.74,6.73,11.07,1,3.94,2.05,8,1.7,12s-2.32,8.23-5.94,10.1c-3.17,1.64-7,1.28-10.48.45s-6.91-2.08-10.49-2.09c-2.16,0-4.3.44-6.46.35s-4.46-.86-5.62-2.68c-1.66-2.62-.31-6,1.07-8.83A44.24,44.24,0,0,1,214,55.32Z"/><path class="cls-2" d="M224.91,120.67c2.57-1.81,5.23-3.75,6.56-6.59s.74-6.84-2.06-8.25a9.86,9.86,0,0,0-4.36-.68c-4.87-.05-5-4.71-9.36-4.89-3.1-.12-6.05,2.66-7.57,4.94-2.47,3.72-3,8.4-2.83,12.86a9.49,9.49,0,0,0,1.49,5.42,7.14,7.14,0,0,0,5.4,2.47C216.86,126.16,221.09,123.37,224.91,120.67Z"/><path class="cls-2" d="M176.41,135.92c-2.93-.53-6.18-.79-8.69.82-1.46.93-2.5,2.4-3.83,3.5-2.48,2.06-5.82,2.74-8.59,4.38s-5,5.2-3.44,8a6,6,0,0,0,4.88,2.57c1.91.13,3.81-.27,5.73-.32,5.08-.16,9.92,2,14.93,2.87s11,0,13.58-4.45c2.21-3.86.68-9-2.52-12.12S180.79,136.71,176.41,135.92Z"/><path class="cls-2" d="M111.47,106.91c-2.19,4-3.27,9-1.57,13.25,1.38,3.47,4.44,6.06,7.82,7.66a45,45,0,0,0,10.75,3.06c2.07.4,4.34.78,6.2-.23a6.76,6.76,0,0,0,3-5.08c.61-4.17-1-8.42-3.56-11.8s-5.89-6-9.21-8.62c-2.31-1.82-5-3.74-7.92-3.2C114.49,102.42,112.69,104.66,111.47,106.91Z"/><path class="cls-2" d="M178.52,73.12c-2.64-2.07-5.54-4.23-8.89-4.31-4.2-.09-7.85,3.28-9.44,7.17s-1.54,8.22-1.48,12.42c0,3.38.22,7.08,2.46,9.61,2,2.3,5.43,3,8.47,2.58A22.75,22.75,0,0,0,178.07,97c4.32-2.71,8.81-6.57,8.86-11.67S182.55,76.27,178.52,73.12Z"/><path class="cls-3" d="M141.94,82.08a8.24,8.24,0,0,0-5.58-2.31,8.15,8.15,0,0,0-5.58,2.31,7.89,7.89,0,0,0,0,11.16,7.89,7.89,0,0,0,11.16,0,7.89,7.89,0,0,0,0-11.16Z"/><path class="cls-3" d="M149.06,10.21c-10.29,0-10.31,16,0,16S159.37,10.21,149.06,10.21Z"/><path class="cls-3" d="M191.21,48.05a8.11,8.11,0,0,0-11.46,0,8.11,8.11,0,0,0,0,11.46,8.09,8.09,0,0,0,11.46,0,8.09,8.09,0,0,0,0-11.46Z"/><path class="cls-3" d="M221.9,23.27c-7.66,0-7.67,11.9,0,11.9S229.57,23.27,221.9,23.27Z"/><path class="cls-3" d="M246.46,88.21c-5.83,0-5.84,9.06,0,9.06S252.3,88.21,246.46,88.21Z"/><path class="cls-3" d="M193.1,107.56c-10.36,0-10.37,16.1,0,16.1S203.48,107.56,193.1,107.56Z"/><path class="cls-3" d="M207.5,80.84c-6.6,0-6.61,10.26,0,10.26S214.12,80.84,207.5,80.84Z"/><path class="cls-3" d="M218,139a8.9,8.9,0,0,0-8.66-2.29,11.52,11.52,0,0,0-2.62,1.13,8.63,8.63,0,0,0,0,14.91,11.52,11.52,0,0,0,2.62,1.13,8.9,8.9,0,0,0,8.66-2.29A8.9,8.9,0,0,0,218,139Z"/><path class="cls-3" d="M141.11,138a9.11,9.11,0,0,0-12.89,0,6.9,6.9,0,0,0-1.89,2.94,6.81,6.81,0,0,0-.78,3.51,9.16,9.16,0,0,0,2.67,6.44,9.11,9.11,0,0,0,12.89,0,10,10,0,0,0,2.67-6.44A9.23,9.23,0,0,0,141.11,138Z"/><path class="cls-3" d="M156.69,109c-7.38,0-7.39,11.47,0,11.47S164.07,109,156.69,109Z"/><path class="cls-3" d="M109.39,83.71a9.19,9.19,0,0,0-6.29-6.29,8.51,8.51,0,0,0-1.62-.29,4.34,4.34,0,0,0-2.37,0,3,3,0,0,0-1.24.2l-.45.06-2,.85-1.71,1.32a6.32,6.32,0,0,0-1.75,2.73,4.11,4.11,0,0,0-.58,2.13,4.29,4.29,0,0,0,0,2.25,4,4,0,0,0,.39,1.68,8.3,8.3,0,0,0,1.54,2.94,5.53,5.53,0,0,0,1,1.19,9,9,0,0,0,8.76,2.31,9,9,0,0,0,6.29-11.08Z"/><path class="cls-3" d="M131.82,19.3a4.56,4.56,0,0,0-7.87,0,4.49,4.49,0,0,0,0,4.6A16.29,16.29,0,0,0,125,25.3a4.07,4.07,0,0,0,5.71,0,12.14,12.14,0,0,0,1.08-1.4A4.47,4.47,0,0,0,131.82,19.3Z"/><path class="cls-3" d="M159.23,42.39c-5.94,0-5.95,9.23,0,9.23S165.17,42.39,159.23,42.39Z"/><path class="cls-4" d="M163.21,168.65A84.48,84.48,0,0,1,167.56.32,108.6,108.6,0,0,0,154.2,12.23a107.44,107.44,0,0,0-29.53,74,107.49,107.49,0,0,0,2,20.44A106.33,106.33,0,0,0,134.41,131c.73,1.61,1.51,3.21,2.35,4.78a102.78,102.78,0,0,0,6.7,11.19A107.35,107.35,0,0,0,163.21,168.65Z"/><path class="cls-5" d="M137.67,35a106.65,106.65,0,0,0-12,36.42,32.31,32.31,0,0,1-8,5c-4,1.5-9.37.87-11.59-2.86-2-3.35-.67-7.68,1.26-11.07s4.51-6.59,5.1-10.45c.44-3-.37-6.07.24-9a12.3,12.3,0,0,1,3.82-6.43C122.07,31.34,131.33,30.78,137.67,35Z"/><path class="cls-5" d="M134.41,131c-1.81.85-4,.48-5.94.1A45.23,45.23,0,0,1,117.71,128c-3.36-1.6-6.43-4.19-7.81-7.66-1.7-4.27-.62-9.21,1.56-13.25,1.23-2.25,3-4.49,5.54-5,2.9-.54,5.62,1.37,7.93,3.19l1.7,1.33A106.33,106.33,0,0,0,134.41,131Z"/><path class="cls-6" d="M154.2,12.23a106.24,106.24,0,0,0-10.15,12.43c-4.87-4.13-3.18-14.27,5-14.27A7.47,7.47,0,0,1,154.2,12.23Z"/><path class="cls-6" d="M143.46,146.93a5.3,5.3,0,0,1-.47,1.17,6.7,6.7,0,0,1-1.88,2.93,9.11,9.11,0,0,1-12.89,0,9.18,9.18,0,0,1-2.67-6.44,6.88,6.88,0,0,1,.79-3.52,6.61,6.61,0,0,1,1.88-2.93,9.35,9.35,0,0,1,6.44-2.67,8.17,8.17,0,0,1,2.1.27A102.78,102.78,0,0,0,143.46,146.93Z"/><path class="cls-6" d="M109.39,83.89a9.17,9.17,0,0,0-6.29-6.29,9.34,9.34,0,0,0-1.62-.3,4.54,4.54,0,0,0-2.37,0,3,3,0,0,0-1.24.21l-.45.06-2,.85-1.71,1.32a6.35,6.35,0,0,0-1.75,2.72,4.15,4.15,0,0,0-.58,2.14,4.29,4.29,0,0,0,0,2.25,4.05,4.05,0,0,0,.39,1.68,8.17,8.17,0,0,0,1.54,2.93,5.62,5.62,0,0,0,1,1.2A9,9,0,0,0,103.1,95a9,9,0,0,0,6.29-11.08Z"/><path class="cls-6" d="M131.82,19.47a4.57,4.57,0,0,0-7.87,0,4.51,4.51,0,0,0,0,4.61,16.29,16.29,0,0,0,1.08,1.4,4.07,4.07,0,0,0,5.71,0,13.06,13.06,0,0,0,1.08-1.4A4.49,4.49,0,0,0,131.82,19.47Z"/></g><g id="calendar_mobile" data-name="calendar mobile"><path class="cls-7" d="M77.28,178.84v29.21H72.91V178.84H67.84v-3.92H82.35v3.92Z"/><path class="cls-7" d="M92,208.05v-2.83c-.84,1.89-1.79,3.18-4.07,3.18-5.27,0-5.31-8.05-5.31-11.72S82.69,185.5,88,185.5c2,0,3.13,1.14,4,2.88v-2.53h4.13v22.2Zm.15-12.27c0-1.74-.1-6.55-2.63-6.55s-2.68,4.42-2.68,6.2v3c0,1.79.1,6.26,2.68,6.26s2.63-4.82,2.63-6.55Z"/><path class="cls-7" d="M104.85,188.73c.84-1.89,1.84-3.23,4.12-3.23,5.27,0,5.32,8.05,5.32,11.72,0,3.83-.1,11.18-5.47,11.18-2.08,0-3.08-1.09-4-2.83v11.82h-4.07V185.85h4.07Zm5.16,6.7c0-1.78-.1-6.2-2.68-6.2s-2.58,4.86-2.58,6.6v2.29c0,1.73.1,6.6,2.58,6.6s2.68-4.47,2.68-6.26Z"/><path class="cls-7" d="M137.93,176.21a3.56,3.56,0,0,0-1.74-.54c-1.74,0-1.83,1.34-1.88,2.73,0,.54-.05,1.09-.05,1.64v5.81h3.47v3.28h-3.47v18.92h-4.08V189.13H128.1v-3.28h2.08V178.2c0-3.63.5-6.91,5-6.91a6.62,6.62,0,0,1,2.78.6Z"/><path class="cls-7" d="M146.53,208.4c-6.26,0-7-6.61-7-11.43s.65-11.47,7-11.47,7,6.66,7,11.47S152.83,208.4,146.53,208.4Zm2.73-12.82c0-1.78,0-6.35-2.64-6.35s-2.63,4.52-2.63,6.3v2.69c0,1.78,0,6.35,2.63,6.35s2.64-4.52,2.64-6.3Z"/><path class="cls-7" d="M166.25,189.62a3.78,3.78,0,0,0-.75-.05c-3.38,0-4.07,2-4.07,5v13.46h-4.08v-22.2h4.08v2.78c1.24-2.09,2.33-3.13,4.82-3.28Z"/><path class="cls-7" d="M180.85,208.05V174.92h4.47v29.36h7.3v3.77Z"/><path class="cls-7" d="M197.09,182a2.78,2.78,0,1,1,0-5.56,2.78,2.78,0,0,1,0,5.56Zm-1.88,26.08v-22.2h4.07v22.2Z"/><path class="cls-7" d="M208,188.38c.94-1.74,1.89-2.88,4-2.88,5.27,0,5.42,7.4,5.42,11.18s-.05,11.72-5.32,11.72c-2.28,0-3.23-1.24-4.12-3.18v2.83H204V171.84H208Zm5.17,7.05c0-1.78-.1-6.2-2.69-6.2s-2.58,4.57-2.58,6.25v3c0,1.69.1,6.26,2.58,6.26s2.69-4.47,2.69-6.26Z"/><path class="cls-7" d="M230.18,189.62a3.78,3.78,0,0,0-.75-.05c-3.38,0-4.07,2-4.07,5v13.46h-4.08v-22.2h4.08v2.78c1.24-2.09,2.33-3.13,4.82-3.28Z"/><path class="cls-7" d="M241.55,208.05v-2.83c-.84,1.89-1.79,3.18-4.07,3.18-5.27,0-5.32-8.05-5.32-11.72s.1-11.18,5.37-11.18c2,0,3.13,1.14,4,2.88v-2.53h4.12v22.2Zm.15-12.27c0-1.74-.1-6.55-2.63-6.55s-2.69,4.42-2.69,6.2v3c0,1.79.1,6.26,2.69,6.26s2.63-4.82,2.63-6.55Z"/><path class="cls-7" d="M259.24,189.62a3.78,3.78,0,0,0-.75-.05c-3.38,0-4.07,2-4.07,5v13.46h-4.08v-22.2h4.08v2.78c1.24-2.09,2.33-3.13,4.82-3.28Z"/><path class="cls-7" d="M267.68,217.39h-4.32l3.52-11.13L261,185.85h4.67l3.23,15.49,3.82-15.49h4.18Z"/><path class="cls-7" d="M68.11,253.66V237.27H61.56v16.39H57.09V220.53h4.47v13h6.55v-13h4.47v33.13Z"/><path class="cls-7" d="M80.63,243.38c0,1.94,0,7.1,2.83,7.1,2.19,0,2.54-2.68,2.54-4.32h3.82a10.48,10.48,0,0,1-.85,4.47A5.92,5.92,0,0,1,83.41,254c-6.26,0-6.8-6.61-6.8-11.37s.54-11.53,6.7-11.53S90,238.76,90,243.38Zm5.17-3c-.1-1.74-.1-5.81-2.59-5.81s-2.48,4.12-2.58,5.81Z"/><path class="cls-7" d="M102.19,253.66v-2.83c-.85,1.89-1.79,3.18-4.07,3.18-5.27,0-5.32-8-5.32-11.72s.1-11.18,5.36-11.18c2,0,3.13,1.14,4,2.88v-2.53h4.12v22.2Zm.15-12.27c0-1.74-.1-6.55-2.63-6.55S97,239.26,97,241.05v3c0,1.78.1,6.25,2.69,6.25s2.63-4.81,2.63-6.55Z"/><path class="cls-7" d="M111,253.66V217.45h4.08v36.21Z"/><path class="cls-7" d="M124.29,234.64v19h-4.07v-19h-2.28v-3.18h2.28v-6.31h4.07v6.31h2.24v3.18Z"/><path class="cls-7" d="M138.45,253.66v-14.8c0-1.74-.1-4.17-2.38-4.17-2.58,0-2.58,2.73-2.58,4.62v14.35h-4.08V217.45h4.08V234c1.14-1.84,2.28-2.93,4.56-2.93,3.83,0,4.47,3,4.47,6.16v16.39Z"/><path class="cls-7" d="M164.83,220.53a8.37,8.37,0,0,1,4.87,1c2.73,1.64,3.27,5.27,3.27,8.2,0,2.73-.59,5.91-2.88,7.7-1.88,1.44-4.37,1.49-6.65,1.49v14.7H159V220.53Zm-1,14.6c3.63,0,4.47-2,4.47-5.26,0-3-.79-5.56-4.27-5.56h-.59v10.82Z"/><path class="cls-7" d="M185.09,235.23a3.64,3.64,0,0,0-.74,0c-3.38,0-4.07,2-4.07,5v13.46H176.2v-22.2h4.08v2.78c1.24-2.09,2.33-3.13,4.81-3.28Z"/><path class="cls-7" d="M194,254c-6.26,0-7-6.61-7-11.42s.65-11.48,7-11.48,7,6.66,7,11.48S200.34,254,194,254Zm2.73-12.82c0-1.78-.05-6.35-2.63-6.35s-2.64,4.52-2.64,6.3v2.69c0,1.78.05,6.35,2.64,6.35s2.63-4.52,2.63-6.3Z"/><path class="cls-7" d="M217.58,255.15c0,5-1.54,7.85-7,7.85a5.93,5.93,0,0,1-6.31-6.26c0-.25.05-.5.05-.74h4c0,1.83.45,3.57,2.63,3.57,2.39,0,2.49-2,2.49-3.87v-4.77c-.8,1.84-1.89,3.08-4,3.08-5.31,0-5.41-7.65-5.41-11.37s0-11.53,5.41-11.53c2.14,0,3.08,1.29,4,3v-2.68h4.12Zm-6.8-20.31c-2.84,0-2.54,6.55-2.54,8.49s0,7,2.78,7c2.24,0,2.34-3,2.44-4.67,0-1.14,0-2.23,0-3.37C213.51,240.4,213.51,234.84,210.78,234.84Z"/><path class="cls-7" d="M231,235.23a3.64,3.64,0,0,0-.74,0c-3.38,0-4.07,2-4.07,5v13.46H222.1v-22.2h4.08v2.78c1.24-2.09,2.33-3.13,4.81-3.28Z"/><path class="cls-7" d="M242.37,253.66v-2.83c-.85,1.89-1.79,3.18-4.07,3.18-5.27,0-5.32-8-5.32-11.72s.1-11.18,5.37-11.18c2,0,3.12,1.14,4,2.88v-2.53h4.12v22.2Zm.15-12.27c0-1.74-.1-6.55-2.64-6.55s-2.68,4.42-2.68,6.21v3c0,1.78.1,6.25,2.68,6.25s2.64-4.81,2.64-6.55Z"/><path class="cls-7" d="M268.84,253.66v-14.6c0-1.79.15-4.22-2.28-4.22s-2.48,2.28-2.48,4.22v14.6H260v-14.6c0-1.79.1-4.22-2.33-4.22s-2.43,2.28-2.43,4.22v14.6h-4.08v-22.2h4.08v2.73c1-1.84,2.08-3.08,4.32-3.08s3.22,1,4,3.08c1-2,2.24-3.08,4.62-3.08,3.13,0,4.77,1.79,4.77,4.87v17.68Z"/><path class="cls-7" d="M286.53,235.73a5.09,5.09,0,0,0-3.13-1.09,2.55,2.55,0,0,0-2.63,2.48c0,3.63,6.85,4,6.85,10.33,0,3.88-2.43,6.56-6.36,6.56a6,6,0,0,1-3.62-1v-4a5.32,5.32,0,0,0,3.38,1.34,2.57,2.57,0,0,0,2.83-2.78c0-4-7-4.47-7-10.53a5.74,5.74,0,0,1,6-6.06,7.19,7.19,0,0,1,3.68.95Z"/></g></svg>