<svg xmlns="http://www.w3.org/2000/svg" width="344.71" height="263.62" viewBox="0 0 344.71 263.62"><defs><style>.cls-1{fill:#bcbdc0;}.cls-2{fill:#3dc3e2;}.cls-3{fill:#c2e65c;}.cls-4{fill:#3bbbd9;}.cls-5{fill:#b5d656;}.cls-6{fill:#51d0e5;}.cls-7{fill:#d1ed6e;}.cls-8{fill:#e1f784;}.cls-9{fill:#ffd800;}</style></defs><title>MedlinePlusMoblieArtboard 1</title><g id="earth"><path class="cls-1" d="M89.5,84.46c.5.06,1,.1,1.53.14l-1.52-.13Z"/><path class="cls-2" d="M258.35,86a86,86,0,0,1-98.75,85,80.81,80.81,0,0,1-8.14-1.62l-.75-.18a86.1,86.1,0,0,1-58-50.89c0-.06,0-.14-.08-.2a83.68,83.68,0,0,1-4-12.46l-.09-.42a86.39,86.39,0,0,1-2.17-19.09c0-.62,0-1.24,0-1.85A86,86,0,0,1,210.08,8.72l.15.06A85.88,85.88,0,0,1,258.35,86Z"/><path class="cls-3" d="M164.33,164.2c-4.34,2.12-9,3.49-13.63,5.05a86.16,86.16,0,0,1-58.12-51.1c0-.14.12-.26.17-.39a8.41,8.41,0,0,1,5.44-4.71c1.33-.28,2.74-.11,4.07-.35a7.07,7.07,0,0,0,5.16-4.07,7,7,0,0,1,1.08-2.16c1.41-1.51,3.92-.57,6-1s3.63-2.33,5.63-3.13a11.55,11.55,0,0,1,5.11-.39l19.39,1.43a2.61,2.61,0,0,1,1.8.59,2,2,0,0,1,.44,1.36c0,2.66-2.3,4.65-4.26,6.45s-3.85,3.91-4.4,6.52.67,5.75,3.22,6.52c1.55.45,3.29,0,4.76.66s2.4,2.56,2.63,4.3.05,3.53.41,5.26c.65,3.15,3.07,6.14,2.22,9.24-.3,1-.93,1.93-1.29,2.94a2.83,2.83,0,0,0,.43,3,3.76,3.76,0,0,0,1.19.62,99.63,99.63,0,0,1,13.65,6.28,4.7,4.7,0,0,1,2.35,2.19C168.47,161.38,166.28,163.25,164.33,164.2Z"/><path class="cls-3" d="M139.39,63.87c-.06.89-.87,1.51-1.61,2q-5.46,3.48-11.11,6.63A41.94,41.94,0,0,1,119.06,76c-3.54,1.13-7.83,1.77-9.48,5.08-2,3.94,1.43,8.62.69,13-.78,4.51-5.59,7-9.93,8.45a73.21,73.21,0,0,1-11.81,2.79A86.2,86.2,0,0,1,108.89,28a12.89,12.89,0,0,0,2,1.22c3.77,1.75,8.2.29,12-1.35s8-3.52,12-2.49c2.05,4.05-.31,8.85-2.65,12.74s-4.77,8.64-2.82,12.75c1,2.1,3,3.55,4.64,5.22a34.79,34.79,0,0,1,4.67,6.29A2.74,2.74,0,0,1,139.39,63.87Z"/><path class="cls-4" d="M155.93,168.17c1.41,1.25,2.85,2.47,4.32,3.63a79.45,79.45,0,0,1-9.55-1.89,86.17,86.17,0,0,1-58.12-51.09,83.82,83.82,0,0,1-4-12.88A86,86,0,0,1,172.35.67h0a104.42,104.42,0,0,0-43.33,49.56,103,103,0,0,0-7,25.26,103.81,103.81,0,0,0-.36,27.14A103.8,103.8,0,0,0,155.93,168.17Z"/><path class="cls-5" d="M155.93,167.94c-1.75.59-3.49,1.15-5.23,1.74a86.16,86.16,0,0,1-58.12-51.1c0-.14.12-.26.17-.39a8.41,8.41,0,0,1,5.44-4.71c1.33-.28,2.74-.11,4.07-.35a7.1,7.1,0,0,0,5.16-4.07,7,7,0,0,1,1.08-2.16c1.41-1.51,3.92-.57,6-1s3.63-2.32,5.63-3.12a6.76,6.76,0,0,1,1.65-.41A103.82,103.82,0,0,0,155.93,167.94Z"/><path class="cls-5" d="M132.32,38.5c-2.1,3.51-4.27,7.7-3.27,11.5a102.77,102.77,0,0,0-7,25.25,26.87,26.87,0,0,1-3,1.18c-3.54,1.12-7.83,1.77-9.48,5.08-2,3.94,1.43,8.62.69,12.95-.78,4.52-5.59,7-9.93,8.46a73.21,73.21,0,0,1-11.81,2.79,86.2,86.2,0,0,1,20.36-77.33,12.89,12.89,0,0,0,2,1.22c3.77,1.75,8.2.29,12-1.35s8-3.52,12-2.49C137,29.81,134.66,34.6,132.32,38.5Z"/><path class="cls-3" d="M253,56a9.83,9.83,0,0,1-.73,1c-.9,1.07-2,2-2.83,3.07-2.4,3.16-2.57,7.63-5,10.73-1.77,2.19-4.84,3.13-4.75,5.92,1.52,1,3.06,2,4.59,3a6.24,6.24,0,0,1,2.67,2.69c.58,1.52-.09,3.18-.76,4.67-1.91,4.3-3.89,8.67-7.05,12.17-1,1.11-2.17,2.32-2.09,3.8a5,5,0,0,0,1.57,2.9l3.83,4.38a4.62,4.62,0,0,1,1.46,2.84,4.52,4.52,0,0,1-1.77,3,62,62,0,0,0-9.6,12.54,6.14,6.14,0,0,0-1.09,3.11,7.38,7.38,0,0,0,1.66,3.75,30,30,0,0,1,3.63,7.57,86.27,86.27,0,0,1-22.46,18.06,45.61,45.61,0,0,1-3.82-6,43.34,43.34,0,0,0-7.8-10.22,19.55,19.55,0,0,0-11.49-5.36c-1.71-.13-3.43,0-5.14-.11a6.17,6.17,0,0,1-4.11-1.72,8.06,8.06,0,0,1-1.06-1.66c-3.78-7.49-3.66-14.12-5.92-22.2-.69-2.42-1.28-5.32.34-7.26a8,8,0,0,1,2.47-1.71c6.56-3.31,13.42-6,19.8-9.67,1.86-1.08,3.88-2.51,4.14-4.63.21-1.7-.78-3.3-1.8-4.68-5.72-7.85-13.35-14.07-21-20.12-1.5-1.19-3.09-2.53-3.47-4.42-.82-4.06,4.51-8.11,2.5-11.72-.69-1.27-2.14-2-2.74-3.31a4,4,0,0,1-.18-2.68c1-4.54,6.33-6.6,8.91-10.45A30.53,30.53,0,0,0,185.63,30c4.31-8.46,12.76-13.88,20.83-18.87,1.17-.72,2.35-1.45,3.52-2.19l.25-.15A86.29,86.29,0,0,1,253,56Z"/><path class="cls-2" d="M203.78,62.09a1.89,1.89,0,0,0-1.07.28,12.29,12.29,0,0,0-5.19,5,1.93,1.93,0,0,0-.31,1,1.88,1.88,0,0,0,.49,1c1.17,1.49,2.74,2.62,4.05,4,1.69,1.75,5.29,11,8.2,10.24.8-.22,1-1.28.93-2.12,0-2.26.38-4.9-.8-6.84-.37-.6-1.27-.5-1.65-1.23-.49-.93-.22-2.92-.28-4a13.82,13.82,0,0,0-.46-3.21,6.83,6.83,0,0,0-3.31-4A1.8,1.8,0,0,0,203.78,62.09Z"/><path class="cls-3" d="M133.41,76a9.57,9.57,0,0,0,4.85-.27,10,10,0,0,1,1.17-.49,4.66,4.66,0,0,1,1.29-.1l2.9,0a1.15,1.15,0,0,0,1.48-1.13,24,24,0,0,0,.26-6.27.6.6,0,0,0-.1-.32.48.48,0,0,0-.31-.15c-3.3-.81-6.6,1.2-9.23,3.36A8.67,8.67,0,0,0,133.59,73,3.21,3.21,0,0,0,133.41,76Z"/><path class="cls-3" d="M148.86,67.81a10.6,10.6,0,0,0-1.54,6.92A4.93,4.93,0,0,1,150,75a2.16,2.16,0,0,0,.93.23c.56,0,.93-.59,1.2-1.09a25.72,25.72,0,0,0,1.59-3.6,1.73,1.73,0,0,0,.13-.92c-.12-.47-.6-.75-1-1a5.31,5.31,0,0,0-3.63-.84.33.33,0,0,0,.42.36Z"/><path class="cls-3" d="M177.09,34.12a5.32,5.32,0,0,1,.09,2.14,3.63,3.63,0,0,1-.65,2c-.87,1-2.47.68-3.33,1.59s-.26,2.54-1.08,3.51c-1.53,1.81-4.3.52-4.62-1.5C166.91,38.26,175.65,29.59,177.09,34.12Z"/><path class="cls-6" d="M258.35,86a86.08,86.08,0,0,1-33.49,68.11,6.88,6.88,0,0,1-1.18-1.11c-3.4-4-1.53-10,.21-15A137,137,0,0,0,213.82,26c-2.38-4.16-5.08-8.56-4.74-13.34a11,11,0,0,1,.9-3.68,1.36,1.36,0,0,1,.1-.21l.15.06A85.88,85.88,0,0,1,258.35,86Z"/><path class="cls-7" d="M253,56a9.83,9.83,0,0,1-.73,1c-.9,1.07-2,2-2.83,3.07-2.4,3.16-2.57,7.63-5,10.73-1.77,2.19-4.84,3.13-4.75,5.92,1.52,1,3.06,2,4.59,3a6.24,6.24,0,0,1,2.67,2.69c.58,1.52-.09,3.18-.76,4.67-1.91,4.3-3.89,8.67-7.05,12.17-1,1.11-2.17,2.32-2.09,3.8a5,5,0,0,0,1.57,2.9l3.83,4.38a4.62,4.62,0,0,1,1.46,2.84,4.52,4.52,0,0,1-1.77,3,62,62,0,0,0-9.6,12.54,6.14,6.14,0,0,0-1.09,3.11,7.38,7.38,0,0,0,1.66,3.75,30,30,0,0,1,3.63,7.57,85.65,85.65,0,0,1-11.81,11,6.88,6.88,0,0,1-1.18-1.11c-3.4-4-1.53-10,.21-15A137,137,0,0,0,213.82,26c-2.38-4.16-5.08-8.56-4.74-13.34a11,11,0,0,1,.9-3.68,1.36,1.36,0,0,1,.1-.21l.15.06A86.29,86.29,0,0,1,253,56Z"/><path class="cls-8" d="M230.78,41.49a22.39,22.39,0,0,1,2.48,10.84c-.06,2.19-.26,4.81,1.51,6.1a3.84,3.84,0,0,0,4.43-.34,8,8,0,0,0,2.46-4,18,18,0,0,0-13.72-23.17C226.35,34.38,229,38.12,230.78,41.49Z"/></g><g id="medlineMobile"><path class="cls-9" d="M26.11,182.84v27.88H21.94V182.84H17.1v-3.75H31v3.75Z"/><path class="cls-9" d="M40.15,210.72V208c-.81,1.81-1.71,3-3.89,3-5,0-5.07-7.68-5.07-11.19s.09-10.67,5.12-10.67c1.94,0,3,1.09,3.84,2.75v-2.42h3.93v21.2ZM40.29,199c0-1.66-.09-6.25-2.51-6.25s-2.56,4.22-2.56,5.92v2.89c0,1.71.09,6,2.56,6s2.51-4.6,2.51-6.26Z"/><path class="cls-9" d="M52.43,192.27c.81-1.8,1.76-3.08,3.94-3.08,5,0,5.07,7.68,5.07,11.19s-.1,10.67-5.22,10.67c-2,0-2.94-1-3.79-2.7v11.28H48.54V189.52h3.89Zm4.93,6.4c0-1.7-.09-5.92-2.56-5.92s-2.46,4.64-2.46,6.3v2.18c0,1.66.09,6.31,2.46,6.31s2.56-4.27,2.56-6Z"/><path class="cls-9" d="M84,180.32a3.45,3.45,0,0,0-1.66-.52c-1.66,0-1.75,1.28-1.8,2.61,0,.52,0,1,0,1.56v5.55h3.32v3.13H80.5v18.07H76.62V192.65h-2v-3.13h2v-7.3c0-3.46.47-6.59,4.74-6.59a6.35,6.35,0,0,1,2.65.57Z"/><path class="cls-9" d="M92.22,211.05c-6,0-6.64-6.31-6.64-10.91s.61-10.95,6.64-10.95,6.68,6.35,6.68,10.95S98.24,211.05,92.22,211.05Zm2.6-12.24c0-1.7,0-6.06-2.51-6.06s-2.51,4.31-2.51,6v2.56c0,1.7,0,6.07,2.51,6.07s2.51-4.32,2.51-6Z"/><path class="cls-9" d="M111,193.12a4.23,4.23,0,0,0-.71,0c-3.22,0-3.89,1.94-3.89,4.79v12.85h-3.89v-21.2h3.89v2.66c1.19-2,2.23-3,4.6-3.13Z"/><path class="cls-9" d="M135,210.72,129.25,196v14.75H125V179.09h5.65a6.86,6.86,0,0,1,4.6,1.19c2.13,1.61,2.7,4.55,2.7,7.06,0,3.08-.86,7.16-4.55,8l6,15.37Zm-5.79-17.6a4.63,4.63,0,0,0,3.08-.75c1.19-1,1.47-2.8,1.47-4.27a9,9,0,0,0-.85-4.17c-.71-1.19-1.76-1.33-3-1.33h-.71Z"/><path class="cls-9" d="M145,200.9c0,1.85,0,6.78,2.7,6.78,2.09,0,2.42-2.56,2.42-4.12h3.65a10,10,0,0,1-.81,4.26,5.65,5.65,0,0,1-5.31,3.23c-6,0-6.49-6.31-6.49-10.86s.52-11,6.4-11,6.35,7.3,6.35,11.71Zm4.93-2.84c-.1-1.66-.1-5.55-2.47-5.55s-2.37,3.93-2.46,5.55Z"/><path class="cls-9" d="M157.37,210.72V176.15h3.89v34.57Z"/><path class="cls-9" d="M167.52,185.82a2.66,2.66,0,1,1,2.61-2.65A2.65,2.65,0,0,1,167.52,185.82Zm-1.8,24.9v-21.2h3.88v21.2Z"/><path class="cls-9" d="M182.22,210.72V208c-.81,1.81-1.71,3-3.89,3-5,0-5.08-7.68-5.08-11.19s.1-10.67,5.13-10.67c1.94,0,3,1.09,3.84,2.75v-2.42h3.93v21.2Zm.14-11.72c0-1.66-.1-6.25-2.52-6.25s-2.56,4.22-2.56,5.92v2.89c0,1.71.1,6,2.56,6s2.52-4.6,2.52-6.26Z"/><path class="cls-9" d="M194.5,191.94c.9-1.66,1.8-2.75,3.84-2.75,5,0,5.17,7.06,5.17,10.67s0,11.19-5.08,11.19c-2.18,0-3.08-1.19-3.93-3v2.71h-3.89V176.15h3.89Zm4.93,6.73c0-1.7-.09-5.92-2.56-5.92s-2.47,4.36-2.47,6v2.84c0,1.62.1,6,2.47,6s2.56-4.27,2.56-6Z"/><path class="cls-9" d="M207.16,210.72V176.15h3.89v34.57Z"/><path class="cls-9" d="M218.54,200.9c0,1.85,0,6.78,2.7,6.78,2.09,0,2.42-2.56,2.42-4.12h3.65a10,10,0,0,1-.8,4.26,5.67,5.67,0,0,1-5.31,3.23c-6,0-6.5-6.31-6.5-10.86s.52-11,6.4-11,6.35,7.3,6.35,11.71Zm4.93-2.84c-.09-1.66-.09-5.55-2.46-5.55s-2.37,3.93-2.47,5.55Z"/><path class="cls-9" d="M252.73,210.72V195.07h-6.26v15.65H242.2V179.09h4.27v12.38h6.26V179.09H257v31.63Z"/><path class="cls-9" d="M264.68,200.9c0,1.85,0,6.78,2.7,6.78,2.09,0,2.42-2.56,2.42-4.12h3.65a10.13,10.13,0,0,1-.8,4.26,5.67,5.67,0,0,1-5.31,3.23c-6,0-6.5-6.31-6.5-10.86s.52-11,6.4-11,6.35,7.3,6.35,11.71Zm4.93-2.84c-.09-1.66-.09-5.55-2.47-5.55s-2.37,3.93-2.46,5.55Z"/><path class="cls-9" d="M285.26,210.72V208c-.81,1.81-1.71,3-3.89,3-5,0-5.07-7.68-5.07-11.19s.09-10.67,5.12-10.67c1.94,0,3,1.09,3.84,2.75v-2.42h3.93v21.2ZM285.4,199c0-1.66-.09-6.25-2.51-6.25s-2.56,4.22-2.56,5.92v2.89c0,1.71.09,6,2.56,6s2.51-4.6,2.51-6.26Z"/><path class="cls-9" d="M293.65,210.72V176.15h3.89v34.57Z"/><path class="cls-9" d="M306.36,192.56v18.16h-3.89V192.56h-2.18v-3h2.18v-6h3.89v6h2.13v3Z"/><path class="cls-9" d="M319.88,210.72V196.59c-.05-1.66-.1-4-2.28-4-2.46,0-2.46,2.61-2.46,4.41v13.71h-3.89V176.15h3.89V192c1.09-1.76,2.18-2.8,4.36-2.8,3.65,0,4.27,2.89,4.27,5.88v15.65Z"/><path class="cls-9" d="M6,256.62V225H10.3v31.63Z"/><path class="cls-9" d="M23.62,256.62V242.87c-.05-2-.09-4.36-2.27-4.36-2.47,0-2.47,2.61-2.47,4.41v13.7H15V235.43h3.89v2.46c1.09-1.75,2.18-2.8,4.36-2.8,3.65,0,4.27,2.9,4.27,5.88v15.65Z"/><path class="cls-9" d="M39.84,226.23a3.35,3.35,0,0,0-1.66-.52c-1.66,0-1.76,1.28-1.8,2.6,0,.53-.05,1.05-.05,1.57v5.55h3.32v3.13H36.33v18.06H32.44V238.56h-2v-3.13h2v-7.31c0-3.46.48-6.59,4.74-6.59a6.36,6.36,0,0,1,2.66.57Z"/><path class="cls-9" d="M48,257c-6,0-6.63-6.3-6.63-10.9s.61-11,6.63-11,6.69,6.36,6.69,11S54.07,257,48,257Zm2.61-12.23c0-1.71,0-6.07-2.51-6.07s-2.52,4.32-2.52,6v2.56c0,1.71.05,6.07,2.52,6.07s2.51-4.31,2.51-6Z"/><path class="cls-9" d="M66.87,239a3.44,3.44,0,0,0-.71-.05c-3.23,0-3.89,2-3.89,4.79v12.85H58.38V235.43h3.89v2.65c1.18-2,2.23-3,4.6-3.13Z"/><path class="cls-9" d="M86.45,256.62V242.68c0-1.71.14-4-2.18-4s-2.37,2.18-2.37,4v13.94H78V242.68c0-1.71.1-4-2.23-4s-2.32,2.18-2.32,4v13.94H69.57V235.43h3.89V238c1-1.75,2-2.94,4.13-2.94s3.08.95,3.79,2.94c1-1.89,2.13-2.94,4.41-2.94,3,0,4.55,1.71,4.55,4.65v16.88Z"/><path class="cls-9" d="M103.34,256.62v-2.7c-.81,1.8-1.71,3-3.89,3-5,0-5.08-7.68-5.08-11.19s.1-10.67,5.12-10.67c2,0,3,1.1,3.85,2.75v-2.41h3.93v21.19Zm.14-11.71c0-1.66-.1-6.26-2.52-6.26s-2.56,4.22-2.56,5.93v2.89c0,1.71.1,6,2.56,6s2.52-4.6,2.52-6.26Z"/><path class="cls-9" d="M116.09,238.46v18.16H112.2V238.46H110v-3h2.18v-6h3.89v6h2.13v3Z"/><path class="cls-9" d="M122.83,231.73a2.66,2.66,0,1,1,2.6-2.66A2.66,2.66,0,0,1,122.83,231.73ZM121,256.62V235.43h3.89v21.19Z"/><path class="cls-9" d="M135.2,257c-6,0-6.64-6.3-6.64-10.9s.62-11,6.64-11,6.69,6.36,6.69,11S141.22,257,135.2,257Zm2.61-12.23c0-1.71-.05-6.07-2.51-6.07s-2.52,4.32-2.52,6v2.56c0,1.71.05,6.07,2.52,6.07s2.51-4.31,2.51-6Z"/><path class="cls-9" d="M154.17,256.62V242.87c0-2-.1-4.36-2.28-4.36-2.46,0-2.46,2.61-2.46,4.41v13.7h-3.89V235.43h3.89v2.46c1.09-1.75,2.18-2.8,4.36-2.8,3.65,0,4.27,2.9,4.27,5.88v15.65Z"/><path class="cls-9" d="M164.7,240.17a2.52,2.52,0,1,1,0-5,2.52,2.52,0,1,1,0,5Zm0,16.78a2.57,2.57,0,0,1-2.52-2.56,2.53,2.53,0,0,1,2.52-2.51,2.57,2.57,0,0,1,2.56,2.51A2.55,2.55,0,0,1,164.7,257Z"/><path class="cls-9" d="M198.93,256.62c-.28-4.36-.62-8.77-.81-13.13,0-1.42-.14-2.8-.18-4.22a34.21,34.21,0,0,0-.15-4.41c-1.13,7.3-2.65,14.51-4,21.76h-2.84c-1.52-7.21-3.27-14.41-4.18-21.76l-1.23,21.76h-4L184.14,225h3.65l2.75,12.9c.14.76.38,1.52.52,2.28.47,2.56.85,5.12,1.18,7.68.1-1.52.48-3,.72-4.46.19-1.14.33-2.32.52-3.46.14-.76.33-1.47.47-2.23L196.42,225h3.7l2.94,31.63Z"/><path class="cls-9" d="M209.36,246.81c0,1.85,0,6.78,2.71,6.78,2.08,0,2.42-2.56,2.42-4.13h3.65a10.18,10.18,0,0,1-.81,4.27A5.65,5.65,0,0,1,212,257c-6,0-6.5-6.3-6.5-10.85s.53-11,6.4-11,6.36,7.31,6.36,11.72ZM214.3,244c-.1-1.66-.1-5.55-2.47-5.55s-2.37,3.94-2.47,5.55Z"/><path class="cls-9" d="M229.94,256.62v-2.7c-.8,1.8-1.7,3-3.88,3-5,0-5.08-7.68-5.08-11.19s.1-10.67,5.17-10.67c2,0,2.94,1,3.79,2.75V222.06h3.94v34.56Zm.15-11.71c0-1.66-.1-6.26-2.52-6.26s-2.56,4.22-2.56,5.93v2.89c0,1.71.1,6,2.56,6s2.52-4.6,2.52-6.26Z"/><path class="cls-9" d="M238.34,256.62V222.06h3.89v34.56Z"/><path class="cls-9" d="M248.49,231.73a2.66,2.66,0,1,1,2.6-2.66A2.66,2.66,0,0,1,248.49,231.73Zm-1.81,24.89V235.43h3.89v21.19Z"/><path class="cls-9" d="M263.66,256.62V242.87c-.05-2-.1-4.36-2.28-4.36-2.46,0-2.46,2.61-2.46,4.41v13.7H255V235.43h3.89v2.46c1.09-1.75,2.18-2.8,4.36-2.8,3.65,0,4.27,2.9,4.27,5.88v15.65Z"/><path class="cls-9" d="M275,246.81c0,1.85,0,6.78,2.7,6.78,2.09,0,2.42-2.56,2.42-4.13h3.65a10,10,0,0,1-.8,4.27A5.66,5.66,0,0,1,277.7,257c-6,0-6.5-6.3-6.5-10.85s.52-11,6.4-11S284,242.4,284,246.81ZM280,244c-.09-1.66-.09-5.55-2.46-5.55s-2.37,3.94-2.47,5.55Z"/><path class="cls-9" d="M293.25,225a8,8,0,0,1,4.65,1c2.61,1.57,3.13,5,3.13,7.82,0,2.61-.57,5.65-2.75,7.35-1.81,1.38-4.18,1.43-6.36,1.43v14h-4.27V225Zm-.95,13.95c3.46,0,4.27-1.9,4.27-5,0-2.85-.76-5.31-4.08-5.31h-.57v10.34Z"/><path class="cls-9" d="M304.11,256.62V222.06H308v34.56Z"/><path class="cls-9" d="M325.07,249.75c0,4.69-1.43,7.25-6.5,7.25a5.79,5.79,0,0,1-4.93-2.13c-1.09-1.42-1.19-3.37-1.19-5.12V235.43h3.89v12.7c0,.48.05,1,.05,1.47.05,1.76.09,3.65,2.37,3.65,2.94,0,2.37-3.12,2.37-5.12v-12.7h3.94Z"/><path class="cls-9" d="M337.63,239.5a4.86,4.86,0,0,0-3-1,2.45,2.45,0,0,0-2.52,2.37c0,3.46,6.55,3.84,6.55,9.86,0,3.7-2.33,6.26-6.07,6.26a5.66,5.66,0,0,1-3.46-1v-3.8a5.08,5.08,0,0,0,3.22,1.29,2.46,2.46,0,0,0,2.7-2.66c0-3.84-6.63-4.27-6.63-10a5.48,5.48,0,0,1,5.69-5.79,6.94,6.94,0,0,1,3.5.9Z"/></g></svg>