<svg xmlns="http://www.w3.org/2000/svg" width="359.82" height="396.97" viewBox="0 0 359.82 396.97"><defs><style>.cls-1{fill:#90cddc;}.cls-2{fill:#63b3bb;}.cls-3{fill:#88c7d1;}.cls-4{fill:#8ac4d2;}.cls-5{fill:#5faab1;}.cls-6{fill:#81bec8;}.cls-7{fill:#fcb316;}.cls-8{fill:#f78f1e;}.cls-9{fill:#f79931;}.cls-10{fill:#d74527;}.cls-11{fill:#e35a32;}.cls-12{fill:#eb6f54;}.cls-13{fill:#bdbdbd;}.cls-14{fill:#757576;}.cls-15{fill:#adadad;}.cls-16{fill:#c74127;}.cls-17{fill:#6b6b6b;}.cls-18{fill:#00acc1;}.cls-19{fill:#f5f5f5;}.cls-20{fill:#676767;}.cls-21{fill:#da522c;}.cls-22{fill:#d1d1d1;}.cls-23{fill:#9d9d9d;}.cls-24{fill:#828383;}</style></defs><title>moonWithShipArtboard 1</title><g id="moon"><circle class="cls-1" cx="194" cy="198.54" r="114.57"/><path class="cls-2" d="M118.24,133.32a16.9,16.9,0,0,0-5.19,8.7c-.81,4,.29,8.2-.32,12.24-.79,5.24-4.28,9.58-6.9,14.17s-4.41,10.48-1.71,15c3,5,10.22,5.91,15.7,3.87s9.85-6.22,14.63-9.61c6.06-4.29,13.09-7.53,17.67-13.37,7.08-9,5.89-23.45-2.57-31.2S126.62,125.47,118.24,133.32Z"/><path class="cls-2" d="M209.41,99.09c-5.33-.82-11.07-.86-15.78,1.77s-7.84,8.65-5.72,13.61,7.92,6.73,12.61,9.29c3.84,2.09,7.22,5,11.17,6.84a25,25,0,0,0,17.18,1.51c5.43-1.49,10.71-5.54,11.36-11.13a12.83,12.83,0,0,0-3.32-9.57,27.09,27.09,0,0,0-8.35-6.11A62.23,62.23,0,0,0,209.41,99.09Z"/><path class="cls-2" d="M250.47,159c3.79-4.57,8.85-7.87,13.84-11.1,5.76-3.73,12.86-7.6,19.1-4.74,5.51,2.53,7.61,9.14,9.12,15,1.38,5.35,2.77,10.83,2.31,16.34s-3.15,11.15-8.06,13.69c-4.3,2.23-9.5,1.73-14.21.61S263.19,186,258.35,186c-2.93,0-5.84.6-8.77.48s-6.05-1.17-7.62-3.64c-2.26-3.56-.42-8.2,1.45-12C245.45,166.71,247.52,162.54,250.47,159Z"/><path class="cls-2" d="M265.28,247.61c3.47-2.45,7.08-5.09,8.88-8.94s1-9.27-2.78-11.19c-1.8-.9-3.91-.89-5.92-.91-6.61-.07-6.72-6.4-12.69-6.63-4.2-.17-8.21,3.6-10.26,6.69-3.36,5-4.1,11.39-3.84,17.44.11,2.58.44,5.3,2,7.35a9.69,9.69,0,0,0,7.33,3.35C254.35,255.06,260.08,251.27,265.28,247.61Z"/><path class="cls-2" d="M199.51,268.29c-4-.72-8.39-1.07-11.8,1.11-2,1.27-3.38,3.26-5.19,4.76-3.37,2.78-7.89,3.7-11.64,5.93s-6.84,7.05-4.67,10.85c1.28,2.26,4,3.31,6.61,3.48s5.18-.36,7.77-.44c6.89-.21,13.46,2.71,20.25,3.9s15-.06,18.42-6c3-5.23.92-12.25-3.42-16.43S205.44,269.37,199.51,268.29Z"/><path class="cls-2" d="M111.43,229c-3,5.47-4.43,12.18-2.12,18,1.87,4.71,6,8.22,10.6,10.39s9.6,3.17,14.58,4.14c2.81.56,5.89,1.07,8.4-.3s3.71-4.15,4.12-6.89c.83-5.66-1.4-11.43-4.83-16s-8-8.16-12.49-11.69c-3.14-2.46-6.83-5.07-10.75-4.33C115.52,222.87,113.09,225.9,111.43,229Z"/><path class="cls-2" d="M202.36,183.12c-3.58-2.8-7.51-5.73-12.06-5.83-5.69-.13-10.64,4.44-12.79,9.71s-2.1,11.15-2,16.85c.06,4.58.29,9.6,3.34,13,2.77,3.12,7.35,4.14,11.48,3.51s7.89-2.69,11.43-4.91c5.86-3.66,11.95-8.9,12-15.82S207.83,187.41,202.36,183.12Z"/><path class="cls-3" d="M152.75,195.28a10.71,10.71,0,0,0-15.13,0,10.71,10.71,0,0,0,0,15.13,10.71,10.71,0,0,0,15.13,0,10.71,10.71,0,0,0,0-15.13Z"/><path class="cls-3" d="M162.41,97.82c-13.95,0-14,21.69,0,21.69S176.39,97.82,162.41,97.82Z"/><path class="cls-3" d="M219.58,149.13a11.46,11.46,0,0,0-7.78-3.22,11.34,11.34,0,0,0-7.77,3.22,11,11,0,0,0,0,15.55,11,11,0,0,0,15.55,0,11.23,11.23,0,0,0,3.22-7.78A11.11,11.11,0,0,0,219.58,149.13Z"/><path class="cls-3" d="M261.19,115.53c-10.38,0-10.4,16.13,0,16.13S271.59,115.53,261.19,115.53Z"/><path class="cls-3" d="M294.5,203.59c-7.91,0-7.92,12.29,0,12.29S302.42,203.59,294.5,203.59Z"/><path class="cls-3" d="M222.14,229.83c-14,0-14.08,21.84,0,21.84S236.22,229.83,222.14,229.83Z"/><path class="cls-3" d="M241.67,193.59c-9,0-9,13.92,0,13.92S250.64,193.59,241.67,193.59Z"/><path class="cls-3" d="M255.94,272.42a12.06,12.06,0,0,0-11.74-3.1,14.61,14.61,0,0,0-3.56,1.53,11.69,11.69,0,0,0,0,20.2,15,15,0,0,0,3.56,1.54,12.27,12.27,0,0,0,6.42,0,12.07,12.07,0,0,0,5.32-3.11,12,12,0,0,0,0-17.06Z"/><path class="cls-3" d="M151.63,271.06a12.36,12.36,0,0,0-17.48,0,13.7,13.7,0,0,0-3.62,8.74,12.44,12.44,0,0,0,3.62,8.74,12.86,12.86,0,0,0,8.74,3.63,12.72,12.72,0,0,0,8.74-3.63,9.24,9.24,0,0,0,2.56-4,9.33,9.33,0,0,0,1.06-4.77A12.48,12.48,0,0,0,151.63,271.06Z"/><path class="cls-3" d="M172.75,231.83c-10,0-10,15.55,0,15.55S182.77,231.83,172.75,231.83Z"/><path class="cls-3" d="M108.62,197.49a12.45,12.45,0,0,0-8.53-8.53,12.63,12.63,0,0,0-2.21-.4,6,6,0,0,0-3.21,0,4.3,4.3,0,0,0-1.68.27l-.61.09-2.74,1.15-2.32,1.8A8.57,8.57,0,0,0,85,195.56a5.76,5.76,0,0,0-.79,2.89,11.9,11.9,0,0,0,.53,5.34,11,11,0,0,0,2.09,4,7.9,7.9,0,0,0,1.42,1.62,12.22,12.22,0,0,0,11.89,3.14,12.22,12.22,0,0,0,8.53-15Z"/><path class="cls-3" d="M139,110.14a6.19,6.19,0,0,0-10.68,0,6.1,6.1,0,0,0,0,6.24,19.26,19.26,0,0,0,1.47,1.9,5.52,5.52,0,0,0,7.74,0,18.15,18.15,0,0,0,1.47-1.9A6.1,6.1,0,0,0,139,110.14Z"/><path class="cls-3" d="M176.2,141.46c-8,0-8.07,12.51,0,12.51S184.26,141.46,176.2,141.46Z"/><path class="cls-4" d="M181.6,312.68A114.57,114.57,0,0,1,187.5,84.4a147.85,147.85,0,0,0-18.12,16.16,145.6,145.6,0,0,0-13.77,16.85,145.88,145.88,0,0,0-26.27,83.47A145.48,145.48,0,0,0,132,228.6a144,144,0,0,0,10.55,33c1,2.19,2.05,4.36,3.19,6.48a138.43,138.43,0,0,0,9.09,15.18A145.68,145.68,0,0,0,181.6,312.68Z"/><path class="cls-5" d="M147,131.37a144.33,144.33,0,0,0-16.23,49.39c-3.45,2.64-6.88,5.29-10.91,6.81-5.5,2-12.71,1.17-15.71-3.88-2.69-4.55-.92-10.42,1.7-15s6.12-8.93,6.91-14.17c.61-4-.5-8.23.33-12.23a16.65,16.65,0,0,1,5.19-8.72C125.81,126.47,138.37,125.71,147,131.37Z"/><path class="cls-5" d="M142.54,261.56c-2.45,1.16-5.38.66-8,.14-5-1-10-2-14.59-4.15s-8.72-5.69-10.6-10.39c-2.31-5.79-.84-12.49,2.12-18,1.67-3.05,4.1-6.08,7.51-6.72,3.93-.74,7.62,1.86,10.76,4.33.77.6,1.55,1.2,2.3,1.8A144,144,0,0,0,142.54,261.56Z"/><path class="cls-6" d="M169.38,100.56a145.6,145.6,0,0,0-13.77,16.85c-6.59-5.6-4.3-19.35,6.81-19.35A10.15,10.15,0,0,1,169.38,100.56Z"/><path class="cls-6" d="M154.82,283.22a7.17,7.17,0,0,1-.64,1.58,9.19,9.19,0,0,1-2.55,4,12.36,12.36,0,0,1-17.48,0,12.44,12.44,0,0,1-3.62-8.73,9.22,9.22,0,0,1,1.07-4.77,9,9,0,0,1,2.55-4,12.73,12.73,0,0,1,8.73-3.62,11.24,11.24,0,0,1,2.85.36A138.43,138.43,0,0,0,154.82,283.22Z"/><path class="cls-6" d="M108.62,197.74a12.46,12.46,0,0,0-8.53-8.54,12.63,12.63,0,0,0-2.21-.4,6,6,0,0,0-3.21,0,4.13,4.13,0,0,0-1.68.28l-.61.08-2.74,1.15-2.32,1.8A8.57,8.57,0,0,0,85,195.8a5.76,5.76,0,0,0-.79,2.89,11.9,11.9,0,0,0,.53,5.34,11,11,0,0,0,2.09,4,7.64,7.64,0,0,0,1.42,1.62,12.22,12.22,0,0,0,11.89,3.14,12.21,12.21,0,0,0,8.53-15Z"/><path class="cls-6" d="M139,110.38a6.19,6.19,0,0,0-10.68,0,6.1,6.1,0,0,0,0,6.24,19.26,19.26,0,0,0,1.47,1.9,5.52,5.52,0,0,0,7.74,0,18.15,18.15,0,0,0,1.47-1.9A6.1,6.1,0,0,0,139,110.38Z"/></g><g id="rocket"><g id="flame"><path class="cls-7" d="M31.39,220a27.16,27.16,0,0,1,2.83,11.43A13.49,13.49,0,0,1,32.91,238a7.65,7.65,0,0,0-3.7-4.49,18,18,0,0,1,0,10.69c-.85-.85-1.55-1.61-2.41-2.46a29.9,29.9,0,0,1-3.29,11c-.08.15-.25.34-.4.25a.36.36,0,0,1-.13-.24c-.76-3.22-1.19-6.75-1.8-10a10.57,10.57,0,0,0-4.76,5,14.1,14.1,0,0,1-.73-13.23A14.16,14.16,0,0,0,10.14,238a16.72,16.72,0,0,1,1.62-16.21,57.37,57.37,0,0,1,11.86-1.81A36,36,0,0,1,31.39,220Z"/><path class="cls-8" d="M28.6,220.94a12.92,12.92,0,0,1,2.69,5.54,29.64,29.64,0,0,1,.64,6.17,13.65,13.65,0,0,0-5-2.28,17.73,17.73,0,0,1,.14,7.84A11,11,0,0,0,25,234.44a34,34,0,0,1-2,10,57.05,57.05,0,0,1-.64-9.52,9.65,9.65,0,0,0-4.62,3.33,37.75,37.75,0,0,1,.77-9.12,12.3,12.3,0,0,0-6,1.23A9.33,9.33,0,0,1,14.94,222c4.58,0,9.19-.32,13.74-.78C28.72,221.28,28.66,221,28.6,220.94Z"/><path class="cls-9" d="M24.39,227.81a2,2,0,0,1,0-1.22,1.87,1.87,0,0,1,1.26-1,10.55,10.55,0,0,1,3.61-.58,12.69,12.69,0,0,1,1,4.9A6.5,6.5,0,0,0,26,228.64c-.11,1.52-.21,3.05-.32,4.57Z"/></g><g id="body"><path class="cls-10" d="M43.74,223.45c-.22,4.27-.85,8.35-.85,8.35s-.33-.39-.87-1.07c-2.39-3-8.94-11.69-10.37-17.88l1.2-5.78.79-3.82s4,4.42,6.86,8.13a37,37,0,0,1,2.39,3.34C43.84,216.3,43.93,219.94,43.74,223.45Z"/><path class="cls-11" d="M43.74,223.45c-.22,4.27-.85,8.35-.85,8.35s-.33-.39-.87-1.07a32.16,32.16,0,0,0-.9-11.19,21.22,21.22,0,0,0-6-10.06,9.73,9.73,0,0,1-2.26-2.41l.79-3.82s4,4.42,6.86,8.13a37,37,0,0,1,2.39,3.34C43.84,216.3,43.93,219.94,43.74,223.45Z"/><path class="cls-12" d="M43.74,223.45a.55.55,0,0,1-.24.12.72.72,0,0,1-.72-.49,2.57,2.57,0,0,1-.14-1,18.26,18.26,0,0,0-2.5-8.72c-.63-1.07-1.4-2.31-1-3.48a18.12,18.12,0,0,0,1.32,1.46,37,37,0,0,1,2.39,3.34C43.84,216.3,43.93,219.94,43.74,223.45Z"/><path class="cls-13" d="M16.93,204.28c0,.72,0,1.44,0,2.15a54.25,54.25,0,0,0,1,11.28,17.54,17.54,0,0,1-6.64-2.29,46,46,0,0,1-1.07-8.91q0-1,0-2.16a45,45,0,0,1,6.06-22.95A38.84,38.84,0,0,1,22,174s-1,3.21-2.08,8.15A123.65,123.65,0,0,0,16.93,204.28Z"/><path class="cls-14" d="M35,220.92a24.08,24.08,0,0,1-13.27,3.64,27.9,27.9,0,0,1-13.06-3.64l2.63-5.5h21.3Z"/><path class="cls-10" d="M10.19,203.25S3,211.21.94,214.72s0,17.08,0,17.08,9.47-11.35,11.23-19Z"/><path class="cls-13" d="M33.93,204.74c0,.48,0,1,0,1.48a43.94,43.94,0,0,1-1.23,8.86c0,.11-.05.23-.08.34s-.31.15-.87.37l-.79.3h0c-3.6,1.29-12.39,3.68-19.64-.67a46,46,0,0,1-1.07-8.91q0-1,0-2.16a45.13,45.13,0,0,1,6.07-22.95,38.44,38.44,0,0,1,5.8-7.4,42,42,0,0,1,5.44,7.55c.13.23.27.46.4.7a49.64,49.64,0,0,1,3.56,7.93,44.31,44.31,0,0,1,2.46,13.93C33.93,204.31,33.93,204.52,33.93,204.74Z"/><path class="cls-10" d="M27.5,181.55a20.58,20.58,0,0,1-11.24-.15,38.44,38.44,0,0,1,5.8-7.4s.19.19.51.57a43.76,43.76,0,0,1,4.54,6.31Z"/><path class="cls-15" d="M16.93,204.28c0,.72,0,1.44,0,2.15a54.25,54.25,0,0,0,1,11.28,17.54,17.54,0,0,1-6.64-2.29,46,46,0,0,1-1.07-8.91q0-1,0-2.16a45,45,0,0,1,6.06-22.95A38.84,38.84,0,0,1,22,174s-1,3.21-2.08,8.15A123.65,123.65,0,0,0,16.93,204.28Z"/><path class="cls-16" d="M22,174s-1,3.21-2.08,8.15a18.67,18.67,0,0,1-3.72-.75A38.84,38.84,0,0,1,22,174Z"/><path class="cls-17" d="M16.93,204.28c0,.72,0,1.44,0,2.15l-6.7.08q0-1,0-2.16Z"/><path class="cls-14" d="M21.82,195.53a4.86,4.86,0,1,1,4.86-4.86A4.86,4.86,0,0,1,21.82,195.53Z"/><circle class="cls-18" cx="21.82" cy="190.67" r="3.8" transform="translate(-170 196.69) rotate(-85.27)"/><path class="cls-19" d="M23,188c-.06.15.06.31.16.44a6.93,6.93,0,0,1,1.43,2.9l.33.12a7.42,7.42,0,0,0-.18-2,2.41,2.41,0,0,0-1.16-1.55C23.33,187.83,23,187.8,23,188Z"/><path class="cls-20" d="M11.28,215.44a17.58,17.58,0,0,0,6.62,2.27l-2.19,6a26.41,26.41,0,0,1-7-2.81Z"/><path class="cls-21" d="M27.11,180.88a10.17,10.17,0,0,1-2.34,0,7.77,7.77,0,0,1-2.22-6.07c0-.07,0-.14,0-.21A43.76,43.76,0,0,1,27.11,180.88Z"/><path class="cls-22" d="M33.93,204.74c0,.48,0,1,0,1.48a43.94,43.94,0,0,1-1.23,8.86,4.44,4.44,0,0,1-1,.71l-.13.06a2.48,2.48,0,0,1-.66.24h0a1.45,1.45,0,0,1-1.37-.33,2.3,2.3,0,0,1-.23-2.09c1.91-9.32-.09-19-2.31-28.22-.24-1-.41-2.28.39-2.94a1.37,1.37,0,0,1,.49-.26,49.64,49.64,0,0,1,3.56,7.93,44.31,44.31,0,0,1,2.46,13.93C33.93,204.31,33.93,204.52,33.93,204.74Z"/><path class="cls-23" d="M33.93,204.74a11.07,11.07,0,0,1-1.14.07,2.44,2.44,0,0,1-1.86-.5,2.37,2.37,0,0,1-.5-1.22l-.9-4.37a14.2,14.2,0,0,1-.42-4.89,4.92,4.92,0,0,1,2.35-3.65,44.3,44.3,0,0,1,2.46,13.92C33.93,204.32,33.93,204.52,33.93,204.74Z"/><path class="cls-14" d="M33.92,204.1c0,.7,0,1.41,0,2.12l-23.68.29q0-1,0-2.16Z"/><path class="cls-14" d="M31.83,191.27a3.6,3.6,0,0,0-2.08,1.44,3.54,3.54,0,0,0-.18,2.07,84,84,0,0,0,1.67,9.44c-.47.07-.85-.07-1.32,0-.54-3.38-1.07-6.92-1.61-10.3a4.72,4.72,0,0,1,0-2c.37-1.25,1.67-1.93,2.86-2.48C31.42,190.11,31.55,190.62,31.83,191.27Z"/><path class="cls-14" d="M22.06,211.21a6,6,0,1,1,6-6A6,6,0,0,1,22.06,211.21Z"/><circle class="cls-18" cx="22.06" cy="205.24" r="4.67"/><path class="cls-19" d="M23.91,202.41c-.06.15.06.31.17.44a7,7,0,0,1,1.43,2.91l.32.11a6.93,6.93,0,0,0-.17-2,2.42,2.42,0,0,0-1.17-1.56C24.3,202.23,24,202.2,23.91,202.41Z"/><path class="cls-24" d="M35.09,220.92a24.06,24.06,0,0,1-13.27,3.64.81.81,0,0,1,.33-.14,25,25,0,0,0,7.79-2.26,2.25,2.25,0,0,0,1.2-1,2.33,2.33,0,0,0-.18-1.65,8.38,8.38,0,0,0-.87-1.87,1.91,1.91,0,0,1-.48-1s0-.06,0-.09l1.41-.47h0l.79-.3c.56-.22.87-.37.87-.37Z"/></g></g></svg>