<svg xmlns="http://www.w3.org/2000/svg" width="419.56" height="318.12" viewBox="0 0 419.56 318.12"><defs><style>.cls-1{fill:#90cddc;}.cls-2{fill:#63b3bb;}.cls-3{fill:#88c7d1;}.cls-4{fill:#8ac4d2;}.cls-5{fill:#5faab1;}.cls-6{fill:#81bec8;}.cls-7{font-size:44px;fill:#ffd800;font-family:FuturaPTCond-Medium, Futura PT Cond;}</style></defs><title>moonTextArtboard 1</title><g id="moon"><circle class="cls-1" cx="202.31" cy="202.57" r="114.57"/><path class="cls-2" d="M126.55,137.35a16.73,16.73,0,0,0-5.19,8.7c-.81,4,.28,8.2-.32,12.24-.79,5.23-4.28,9.58-6.91,14.17s-4.4,10.48-1.7,15c3,5,10.21,5.91,15.7,3.87s9.85-6.22,14.63-9.61c6.05-4.29,13.08-7.53,17.66-13.37,7.08-9,5.9-23.45-2.56-31.2S134.92,129.5,126.55,137.35Z"/><path class="cls-2" d="M217.72,103.12c-5.33-.82-11.07-.86-15.78,1.77s-7.84,8.65-5.73,13.61,7.93,6.73,12.62,9.29c3.84,2.09,7.22,5,11.17,6.84a25,25,0,0,0,17.17,1.51c5.43-1.49,10.71-5.54,11.36-11.13a12.78,12.78,0,0,0-3.31-9.57,27.09,27.09,0,0,0-8.35-6.11A62.23,62.23,0,0,0,217.72,103.12Z"/><path class="cls-2" d="M258.77,163c3.8-4.56,8.86-7.86,13.84-11.09,5.76-3.74,12.87-7.6,19.1-4.74,5.52,2.53,7.62,9.14,9.13,15,1.38,5.35,2.77,10.83,2.31,16.34s-3.15,11.15-8.06,13.69c-4.31,2.22-9.5,1.73-14.22.61S271.5,190,266.65,190c-2.92,0-5.84.6-8.76.47s-6-1.16-7.62-3.63c-2.26-3.56-.42-8.2,1.45-12C253.76,170.74,255.83,166.57,258.77,163Z"/><path class="cls-2" d="M273.58,251.64c3.48-2.45,7.09-5.09,8.89-8.94s1-9.27-2.79-11.19c-1.8-.91-3.9-.89-5.92-.91-6.6-.07-6.71-6.4-12.68-6.64-4.2-.16-8.21,3.61-10.27,6.7-3.35,5-4.09,11.39-3.83,17.44.11,2.58.44,5.3,2,7.35a9.67,9.67,0,0,0,7.32,3.35C262.66,259.09,268.39,255.3,273.58,251.64Z"/><path class="cls-2" d="M207.81,272.32c-4-.72-8.38-1.07-11.79,1.11-2,1.27-3.38,3.25-5.19,4.75-3.37,2.79-7.89,3.71-11.65,5.94s-6.83,7.05-4.67,10.85c1.29,2.26,4,3.31,6.62,3.48s5.17-.36,7.77-.44c6.89-.21,13.45,2.71,20.24,3.9s15-.06,18.43-6c3-5.23.92-12.25-3.42-16.43S213.74,273.4,207.81,272.32Z"/><path class="cls-2" d="M119.74,233c-3,5.48-4.44,12.19-2.13,18,1.88,4.71,6,8.22,10.6,10.39s9.61,3.17,14.58,4.14c2.81.55,5.9,1.07,8.41-.3s3.71-4.15,4.11-6.89c.83-5.66-1.4-11.43-4.83-16s-8-8.16-12.48-11.69c-3.14-2.46-6.83-5.07-10.75-4.34C123.83,226.9,121.39,229.93,119.74,233Z"/><path class="cls-2" d="M210.66,187.15c-3.58-2.8-7.5-5.73-12-5.84-5.7-.12-10.65,4.44-12.8,9.72s-2.09,11.15-2,16.85c.07,4.58.3,9.6,3.34,13,2.77,3.12,7.36,4.14,11.49,3.5s7.88-2.68,11.42-4.9c5.87-3.67,12-8.9,12-15.82S216.14,191.44,210.66,187.15Z"/><path class="cls-3" d="M161.06,199.31a11.14,11.14,0,0,0-7.57-3.13,11,11,0,0,0-7.56,3.13,10.68,10.68,0,0,0,0,15.13,10.71,10.71,0,0,0,15.13,0,10.71,10.71,0,0,0,0-15.13Z"/><path class="cls-3" d="M170.72,101.85c-14,0-14,21.69,0,21.69S184.7,101.85,170.72,101.85Z"/><path class="cls-3" d="M227.88,153.16a11,11,0,0,0-15.54,0,11,11,0,0,0,0,15.55,11,11,0,0,0,15.54,0,11,11,0,0,0,0-15.55Z"/><path class="cls-3" d="M269.5,119.56c-10.39,0-10.4,16.13,0,16.13S279.9,119.56,269.5,119.56Z"/><path class="cls-3" d="M302.81,207.62c-7.91,0-7.92,12.29,0,12.29S310.73,207.62,302.81,207.62Z"/><path class="cls-3" d="M230.45,233.86c-14.06,0-14.08,21.84,0,21.84S244.52,233.86,230.45,233.86Z"/><path class="cls-3" d="M250,197.62c-8.95,0-9,13.92,0,13.92S258.94,197.62,250,197.62Z"/><path class="cls-3" d="M264.25,276.45a12.1,12.1,0,0,0-5.33-3.11,12.23,12.23,0,0,0-6.41,0,15,15,0,0,0-3.56,1.54,11.69,11.69,0,0,0,0,20.2,15,15,0,0,0,3.56,1.54,12.23,12.23,0,0,0,6.41,0,12.1,12.1,0,0,0,5.33-3.11,12.07,12.07,0,0,0,0-17.06Z"/><path class="cls-3" d="M159.94,275.09a12.37,12.37,0,0,0-17.49,0,13.84,13.84,0,0,0-3.62,8.74,12.5,12.5,0,0,0,3.62,8.74,12.37,12.37,0,0,0,17.49,0,13.84,13.84,0,0,0,3.62-8.74A12.55,12.55,0,0,0,159.94,275.09Z"/><path class="cls-3" d="M181.06,235.86c-10,0-10,15.54,0,15.54S191.08,235.86,181.06,235.86Z"/><path class="cls-3" d="M116.93,201.52A12.46,12.46,0,0,0,108.4,193a11.92,11.92,0,0,0-2.21-.4,6,6,0,0,0-3.21,0,4.35,4.35,0,0,0-1.69.27l-.6.08L98,194.1l-2.33,1.8a8.64,8.64,0,0,0-2.37,3.69,5.65,5.65,0,0,0-.78,2.89,5.84,5.84,0,0,0,0,3.05,5.56,5.56,0,0,0,.53,2.28,11,11,0,0,0,2.09,4,7.35,7.35,0,0,0,1.42,1.62,12.21,12.21,0,0,0,5.39,3.14,12.36,12.36,0,0,0,6.5,0,12.22,12.22,0,0,0,8.53-15Z"/><path class="cls-3" d="M147.34,114.17a6.18,6.18,0,0,0-10.67,0,6.1,6.1,0,0,0,0,6.24,20.81,20.81,0,0,0,1.46,1.9,5.54,5.54,0,0,0,7.75,0,22.28,22.28,0,0,0,1.46-1.9A6.05,6.05,0,0,0,147.34,114.17Z"/><path class="cls-3" d="M184.5,145.49c-8.05,0-8.06,12.51,0,12.51S192.57,145.49,184.5,145.49Z"/><path class="cls-4" d="M189.9,316.71a114.57,114.57,0,0,1,5.91-228.28A145.41,145.41,0,0,0,139,184.79a143.54,143.54,0,0,0-1.39,20.12,146.07,146.07,0,0,0,13.19,60.68c1,2.19,2,4.36,3.19,6.48a141.07,141.07,0,0,0,9.1,15.18A145.63,145.63,0,0,0,189.9,316.71Z"/><path class="cls-5" d="M155.27,135.39A144.66,144.66,0,0,0,139,184.79c-3.44,2.64-6.87,5.29-10.9,6.8-5.5,2-12.72,1.18-15.72-3.87-2.68-4.55-.91-10.43,1.71-15s6.12-8.92,6.91-14.16c.6-4.05-.5-8.23.33-12.23a16.7,16.7,0,0,1,5.18-8.72C134.12,130.5,146.68,129.74,155.27,135.39Z"/><path class="cls-5" d="M150.84,265.59c-2.44,1.16-5.37.66-8,.14-5-1-10-2-14.59-4.15s-8.72-5.69-10.6-10.39c-2.31-5.79-.84-12.49,2.12-18,1.67-3.05,4.1-6.08,7.51-6.72,3.93-.74,7.62,1.86,10.75,4.32l2.31,1.81A144.47,144.47,0,0,0,150.84,265.59Z"/><path class="cls-6" d="M177.69,104.59a144.76,144.76,0,0,0-13.77,16.85c-6.6-5.6-4.31-19.35,6.81-19.35A10.15,10.15,0,0,1,177.69,104.59Z"/><path class="cls-6" d="M163.13,287.25a7.7,7.7,0,0,1-.64,1.58,9.19,9.19,0,0,1-2.55,4,12.37,12.37,0,0,1-17.49,0,12.39,12.39,0,0,1-3.61-8.73,9.31,9.31,0,0,1,1.06-4.77,9.19,9.19,0,0,1,2.55-4,12.75,12.75,0,0,1,8.74-3.62,11.11,11.11,0,0,1,2.84.36A141.07,141.07,0,0,0,163.13,287.25Z"/><path class="cls-6" d="M116.93,201.76a12.46,12.46,0,0,0-8.53-8.53,12.8,12.8,0,0,0-2.21-.4,6,6,0,0,0-3.21,0,4.35,4.35,0,0,0-1.69.27l-.6.09L98,194.34l-2.33,1.8a8.76,8.76,0,0,0-2.37,3.69,5.65,5.65,0,0,0-.78,2.89,5.84,5.84,0,0,0,0,3.05,5.56,5.56,0,0,0,.53,2.28,11,11,0,0,0,2.09,4,7.35,7.35,0,0,0,1.42,1.62,12.21,12.21,0,0,0,5.39,3.14,12.36,12.36,0,0,0,6.5,0,12.22,12.22,0,0,0,8.53-15Z"/><path class="cls-6" d="M147.34,114.41a6.18,6.18,0,0,0-10.67,0,6.1,6.1,0,0,0,0,6.24,20.81,20.81,0,0,0,1.46,1.9,5.54,5.54,0,0,0,7.75,0,22.28,22.28,0,0,0,1.46-1.9A6.05,6.05,0,0,0,147.34,114.41Z"/></g><g id="moonText"><text class="cls-7" transform="translate(65.49 95) rotate(-35.56)">C</text><text class="cls-7" transform="matrix(0.83, -0.55, 0.55, 0.83, 77.4, 86.55)">l</text><text class="cls-7" transform="matrix(0.84, -0.54, 0.54, 0.84, 83.71, 82.33)">i</text><text class="cls-7" transform="matrix(0.86, -0.51, 0.51, 0.86, 90.06, 78.27)">c</text><text class="cls-7" transform="matrix(0.88, -0.48, 0.48, 0.88, 99.13, 72.77)">k</text><text class="cls-7" transform="matrix(0.89, -0.45, 0.45, 0.89, 112.22, 65.61)"> </text><text class="cls-7" transform="translate(121.06 61.06) rotate(-24.05)">H</text><text class="cls-7" transform="translate(137.32 53.84) rotate(-20.82)">e</text><text class="cls-7" transform="translate(150.42 48.9) rotate(-18.15)">r</text><text class="cls-7" transform="translate(159.92 45.72) rotate(-15.27)">e</text><text class="cls-7" transform="matrix(0.98, -0.21, 0.21, 0.98, 173.37, 42.08)"> </text><text class="cls-7" transform="translate(183.09 40) rotate(-9.61)">t</text><text class="cls-7" transform="translate(191.01 38.54) rotate(-6.25)">o</text><text class="cls-7" transform="translate(205.43 37.02) rotate(-2.33)"> </text><text class="cls-7" transform="translate(215.16 36.53) rotate(1.77)">V</text><text class="cls-7" transform="translate(229.58 37.09) rotate(5.84)">i</text><text class="cls-7" transform="translate(236.85 37.76) rotate(9.34)">s</text><text class="cls-7" transform="translate(247.66 39.58) rotate(12.93)">i</text><text class="cls-7" transform="translate(254.85 41.21) rotate(16.05)">t</text><text class="cls-7" transform="translate(262.68 43.42) rotate(19.66)"> </text><text class="cls-7" transform="translate(271.73 46.27) rotate(25.83)">M</text><text class="cls-7" transform="matrix(0.84, 0.54, -0.54, 0.84, 290.85, 55.74)">e</text><text class="cls-7" transform="matrix(0.79, 0.61, -0.61, 0.79, 302.41, 63.06)">d</text><text class="cls-7" transform="translate(314.14 72.24) rotate(41.33)">l</text><text class="cls-7" transform="translate(319.72 77.14) rotate(43.68)">i</text><text class="cls-7" transform="matrix(0.68, 0.73, -0.73, 0.68, 325.11, 82.11)">n</text><text class="cls-7" transform="matrix(0.63, 0.78, -0.78, 0.63, 335.49, 93.28)">e</text><text class="cls-7" transform="matrix(0.58, 0.81, -0.81, 0.58, 344.27, 104.06)">P</text><text class="cls-7" transform="matrix(0.55, 0.84, -0.84, 0.55, 353.01, 116.41)">l</text><text class="cls-7" transform="translate(357.15 122.6) rotate(59.14)">u</text><text class="cls-7" transform="matrix(0.48, 0.88, -0.88, 0.48, 365.06, 135.92)">s</text></g></svg>