<svg xmlns="http://www.w3.org/2000/svg" width="419.56" height="318.12" viewBox="0 0 419.56 318.12"><defs><style>.cls-1{fill:#eb8659;}.cls-2{fill:#ef8e67;}.cls-3{fill:#d67a51;}.cls-4{fill:#dd7f5b;}.cls-5{fill:#db7d53;}.cls-6{fill:#c7714b;}.cls-7{fill:#ef9778;}.cls-8{fill:#e5876a;}.cls-9{fill:#dba189;}.cls-10{fill:#cc9481;}.cls-11{fill:#d69d86;}.cls-12{fill:#c7907e;}.cls-13{font-size:44px;fill:#ffd800;font-family:FuturaPTCond-Medium, Futura PT Cond;}</style></defs><title>saturnTextArtboard 1</title><g id="saturn"><path class="cls-1" d="M316.05,224c-.35,1.93-.76,3.91-1.22,5.88a111.28,111.28,0,0,1-4.57,14.82A114.53,114.53,0,0,1,209.65,318a113.3,113.3,0,0,1-19-.56h0A114.37,114.37,0,0,1,92,177.44c.14-.6.27-1.19.43-1.79A114.46,114.46,0,0,1,229.61,92.23c3,.72,5.95,1.53,8.83,2.46A113.32,113.32,0,0,1,278,116.86l.15.14a114.4,114.4,0,0,1,37.86,107Z"/><path class="cls-2" d="M316.05,224c-.35,1.93-.76,3.91-1.22,5.88a111.28,111.28,0,0,1-4.57,14.82A114.53,114.53,0,0,1,209.65,318a11.55,11.55,0,0,1-1.87-2.74c-2.83-5.76-.4-12.65,2.59-18.31,18.31-34.65,57.32-58.16,65.09-96.58,3.5-17.36-.1-35.25-2.57-52.78-1-7-1.78-14.32.1-21.17a22.81,22.81,0,0,1,5.2-9.37,114.4,114.4,0,0,1,37.86,107Z"/><path class="cls-3" d="M238.44,94.69a14.72,14.72,0,0,1-1.36,4.06c-3.53,6.86-11.51,9.92-18.81,12.44L173,126.77c-5.11,1.77-11.3,5.22-10.42,10.54.73,4.44,6.2,6.69,7.48,11,.93,3.1-.65,6.52-3.07,8.66s-5.57,3.27-8.64,4.29a312.35,312.35,0,0,1-65.9,14.4A114.44,114.44,0,0,1,229.62,92.24Q234.12,93.29,238.44,94.69Z"/><path class="cls-3" d="M313.4,171.94c-5.19.54-10.75-.94-16-2.18a147.7,147.7,0,0,0-85.66,5.5c-5,1.88-10.06,4.08-15.41,4.07s-11.15-2.92-12.54-8.08,1.78-10.16,5.19-14.13c19.74-22.9,51.11-31.19,80.48-38.3,2.81-.68,5.68-1.36,8.55-1.95A114.8,114.8,0,0,1,313.4,171.94Z"/><path class="cls-3" d="M190.52,211.08c-5,2.08-10.55,2.11-15.92,2.64-28,2.67-52.48,18.89-78.46,29.8A113.65,113.65,0,0,1,89,200.63c.34-.11.69-.2,1-.29,29.78-8,60.33-15.89,91-13.2,3.9.34,7.87.89,11.36,2.67s6.41,5.05,6.85,8.95C199.88,204.13,195.52,209,190.52,211.08Z"/><path class="cls-3" d="M314.83,229.85a111.42,111.42,0,0,1-4.57,14.83c-1.32.25-2.65.45-4,.61-12.33,1.57-26.2,2-34.78,11-4.37,4.58-6.71,10.88-11.47,15.06-5.06,4.46-12.09,5.84-18.8,6.46s-13.62.66-19.92,3.05-12,7.89-12.22,14.63c-.09,2.67.69,5.41-.1,8s-2.93,4.37-5,5.95a79.78,79.78,0,0,1-13.33,8h0a110.06,110.06,0,0,1-13.41-2.33,114.08,114.08,0,0,1-45.62-22.27l.27-.14c7.53-3.56,16.19-4.64,23.19-9.17,2.77-1.8,5.39-4.45,5.59-7.74.13-2.12-.77-4.21-.61-6.31.33-5,5.95-7.74,10.79-9.05a101.1,101.1,0,0,1,42.11-2.27c4.39.69,8.78,1.69,13.21,1.4s9-2.06,11.45-5.77c4.12-6.28.67-15.35,4.53-21.79,3.59-6,11.68-7,18.64-7.35q27.63-1.29,55.3-.61C315.7,225.92,315.29,227.89,314.83,229.85Z"/><path class="cls-4" d="M313.41,172c-5.2.53-10.75-.95-16-2.19a145.09,145.09,0,0,0-21.84-3.43c-.8-6.27-1.82-12.56-2.7-18.79-1-7-1.79-14.32.1-21.17a22.59,22.59,0,0,1,5.2-9.37c1.05.9,2.08,1.83,3.09,2.77s2,1.9,3,2.88,1.93,2,2.87,3,1.87,2,2.77,3.09,1.8,2.1,2.65,3.17c1.71,2.11,3.33,4.29,4.87,6.51.78,1.14,1.55,2.28,2.29,3.45s1.48,2.33,2.18,3.52,1.39,2.39,2,3.6c.29.52.57,1.05.85,1.58,1,1.93,2,3.89,2.88,5.87.5,1.14,1,2.28,1.48,3.42A114.93,114.93,0,0,1,313.41,172Z"/><path class="cls-4" d="M316.06,224c-.36,1.93-.77,3.91-1.22,5.88-.31,1.27-.63,2.54-1,3.8a109.24,109.24,0,0,1-3.62,11c-1.31.26-2.63.45-3.94.62-12.35,1.56-26.21,1.95-34.79,10.94-4.37,4.58-6.71,10.88-11.47,15.06-5.06,4.47-12.09,5.85-18.8,6.46s-13.62.66-19.92,3.05a8.26,8.26,0,0,0-.92.4c14.5-19.59,33.75-36.49,45.59-56.84Q291,223.35,316.06,224Z"/><path class="cls-5" d="M170.33,313.33a114.38,114.38,0,0,1-74.22-69.7,115.88,115.88,0,0,1-5-17.74A113.17,113.17,0,0,1,89,200.73c.08-3,.29-6.11.63-9.2a112.72,112.72,0,0,1,2.39-14c.14-.6.28-1.19.43-1.78A114.46,114.46,0,0,1,228.94,92.19,147.92,147.92,0,0,0,184.8,122.8a146.37,146.37,0,0,0-37.56,65.26c-.44,1.58-.85,3.16-1.22,4.76a145.26,145.26,0,0,0-3.22,19.3c-.35,3.44-.57,6.88-.66,10.29a146.64,146.64,0,0,0,11.73,61.87A148.13,148.13,0,0,0,170.33,313.33Z"/><path class="cls-6" d="M228.94,92.19A147.92,147.92,0,0,0,184.8,122.8L173,126.88c-5.1,1.76-11.3,5.21-10.41,10.53.45,2.75,2.73,4.66,4.69,6.76a144.87,144.87,0,0,0-10.17,17.6,310.93,310.93,0,0,1-64.66,14A114.46,114.46,0,0,1,228.94,92.19Z"/><path class="cls-6" d="M142.14,222.41c-9.25,3.75-18.31,8.24-27.39,12.65-6.17,3-12.36,5.93-18.64,8.57a115.88,115.88,0,0,1-5-17.74A113.17,113.17,0,0,1,89,200.73c.35-.11.69-.19,1-.28,4-1.08,8.1-2.18,12.17-3.22,14.87-3.86,29.93-7.35,45.07-9.17-.44,1.58-.85,3.16-1.22,4.76a145.26,145.26,0,0,0-3.22,19.3C142.45,215.56,142.23,219,142.14,222.41Z"/><path class="cls-6" d="M170.33,313.33a113.86,113.86,0,0,1-38.76-20.45l.27-.14c7.12-3.36,15.26-4.51,22-8.46A148.13,148.13,0,0,0,170.33,313.33Z"/><path class="cls-7" d="M304.35,185.4c-3.59-4.28-10.24-7.19-14.66-3.77-3.36,2.61-3.69,7.45-4,11.7A111,111,0,0,1,254,263.24c-4.58,4.61-9.6,8.84-13.47,14.07S234,289,235,295.47c18.48-1.73,35.8-11.3,48.48-24.86s20.91-30.91,25.24-49C311.68,209.36,312.45,195.09,304.35,185.4Z"/><path class="cls-8" d="M308.48,223.84A117.75,117.75,0,0,1,300.43,246c-10.58,1.21-21.44,2.72-28.61,10.23-4.36,4.58-6.71,10.88-11.46,15.06-5.06,4.47-12.1,5.85-18.81,6.46-.34,0-.69.07-1,.08.12-.17.24-.35.37-.52,3.86-5.24,8.89-9.47,13.47-14.09a110.45,110.45,0,0,0,25-39.27C289.06,223.72,298.78,223.69,308.48,223.84Z"/><path class="cls-9" d="M334.85,180.29Q325,176,314.18,171.91A113.46,113.46,0,0,1,318,208.55a157.43,157.43,0,0,1,16.56,8.91c10,6.26,15.09,11.95,14,16.49-1.15,4.89-9.48,7.78-23,8.76-4.35.31-9.26.43-14.64.34h-.45c-2.7-.05-5.53-.13-8.47-.28l-.32,0c-9-.44-19-1.36-29.75-2.69l-.29-.05c-4.77-.59-9.71-1.29-14.81-2h0c-5.19-.78-10.54-1.67-16-2.65-13.37-2.35-27.47-5.25-42-8.66C185.13,223.43,172,220,159.7,216.4h0q-8.67-2.55-16.8-5.14c-14.73-4.71-28-9.57-39.43-14.36h0l-.14-.07q-7.34-3.08-13.56-6.11l0,0v0l-.91-.45c-18.49-9.11-28.85-17.58-27.37-23.84a4.53,4.53,0,0,1,.37-1l.28-.51c.1-.17.22-.33.32-.48,3.68-5,16.63-7.34,35.81-7.13a115.29,115.29,0,0,1,5-10.43s0,0,0,0a113.71,113.71,0,0,1,13.35-19.33l.08-.12q-4.78-.36-9.42-.61c-56-3.18-96.59,4.23-105.4,21.59-.11.24-.22.48-.34.71a15.42,15.42,0,0,0-.67,1.65q-.22.69-.39,1.38C-.6,156.63.32,161.5,3,166.63c0,0,0,0,0,0,8.51,16,34.53,34.24,71.81,51.3q7.69,3.54,16,7h0c.24.11.46.19.7.29q11.46,4.71,24,9.26a.24.24,0,0,1,.13.05c8.73,3.14,17.84,6.2,27.26,9.12a.1.1,0,0,0,.09,0c15.32,4.79,31.48,9.27,48.24,13.31h.07c1.66.41,3.26.82,4.92,1.21,12.37,2.9,24.57,5.47,36.47,7.68h0q7.91,1.47,15.61,2.72a.8.8,0,0,0,.26.05h0c4.06.68,8.09,1.29,12.08,1.86h0a1.26,1.26,0,0,0,.27,0q10.11,1.47,19.84,2.58h0c3.79.43,7.51.82,11.19,1.17l1.19.1c1.26.12,2.51.24,3.75.34,67.86,5.83,116.89-2.54,122-24.24C423.83,230.5,390,204,334.85,180.29Z"/><path class="cls-10" d="M344.57,202s65.93,46-14.33,61C330.24,263,430.56,253.85,344.57,202Z"/><path class="cls-11" d="M143.16,243.72a145.3,145.3,0,0,1-1.07-15.51c0-1.21,0-2.43,0-3.64,0-.71,0-1.44,0-2.15v-.11c0-.22,0-.46,0-.68.09-3.41.31-6.84.66-10.27-14.78-4.74-28.11-9.62-39.51-14.42l-.12-.07h0l-1-.41c-4.47-1.9-8.63-3.77-12.43-5.64l0,0a.19.19,0,0,1-.09-.05l-.87-.42c-18.46-9.14-28.8-17.6-27.34-23.83a.23.23,0,0,1,0-.11,4.53,4.53,0,0,1,.37-1l.28-.51c.1-.17.22-.33.32-.48,3.85-4.93,16.76-7.24,35.79-7a110.42,110.42,0,0,1,5-10.38.06.06,0,0,0,0,0,112.63,112.63,0,0,1,13.46-19.48h-.07c-3.16-.24-6.29-.44-9.36-.61-55.9-3.16-96.4,4.18-105.38,21.47-.11.24-.22.48-.34.71a15.42,15.42,0,0,0-.67,1.65q-.22.69-.39,1.38a.38.38,0,0,0,0,.1c-1.09,4.6-.14,9.53,2.62,14.71,0,0,0,0,0,0,8.6,16,34.59,34.13,71.75,51.15q7.75,3.54,16.12,7l0,0h0l.12.05.54.23q11.06,4.56,23.12,8.94.38.15.78.27h0s.06,0,.12.05h0q13.17,4.77,27.38,9.19l.11,0S143.16,243.75,143.16,243.72Z"/><path class="cls-12" d="M83.27,140.67s-79.51,11.76-14.34,61C68.93,201.62-16.8,148.72,83.27,140.67Z"/></g><g id="saturn_Text" data-name="saturn Text"><text class="cls-13" transform="translate(65.49 96) rotate(-35.56)">C</text><text class="cls-13" transform="matrix(0.83, -0.55, 0.55, 0.83, 77.4, 87.55)">l</text><text class="cls-13" transform="matrix(0.84, -0.54, 0.54, 0.84, 83.71, 83.33)">i</text><text class="cls-13" transform="matrix(0.86, -0.51, 0.51, 0.86, 90.06, 79.27)">c</text><text class="cls-13" transform="matrix(0.88, -0.48, 0.48, 0.88, 99.13, 73.77)">k</text><text class="cls-13" transform="matrix(0.89, -0.45, 0.45, 0.89, 112.22, 66.61)"> </text><text class="cls-13" transform="translate(121.06 62.06) rotate(-24.05)">H</text><text class="cls-13" transform="translate(137.32 54.84) rotate(-20.82)">e</text><text class="cls-13" transform="translate(150.42 49.9) rotate(-18.15)">r</text><text class="cls-13" transform="translate(159.92 46.72) rotate(-15.27)">e</text><text class="cls-13" transform="matrix(0.98, -0.21, 0.21, 0.98, 173.37, 43.08)"> </text><text class="cls-13" transform="translate(183.09 41) rotate(-9.61)">t</text><text class="cls-13" transform="translate(191.01 39.54) rotate(-6.25)">o</text><text class="cls-13" transform="translate(205.43 38.02) rotate(-2.33)"> </text><text class="cls-13" transform="translate(215.16 37.53) rotate(1.77)">V</text><text class="cls-13" transform="translate(229.58 38.09) rotate(5.84)">i</text><text class="cls-13" transform="translate(236.85 38.76) rotate(9.34)">s</text><text class="cls-13" transform="translate(247.66 40.58) rotate(12.93)">i</text><text class="cls-13" transform="translate(254.85 42.21) rotate(16.05)">t</text><text class="cls-13" transform="translate(262.68 44.42) rotate(19.66)"> </text><text class="cls-13" transform="translate(271.83 47.58) rotate(24.32)">E</text><text class="cls-13" transform="translate(283.5 52.82) rotate(29.15)">v</text><text class="cls-13" transform="matrix(0.83, 0.56, -0.56, 0.83, 294.28, 58.77)">e</text><text class="cls-13" transform="matrix(0.78, 0.63, -0.63, 0.78, 305.68, 66.4)">n</text><text class="cls-13" transform="matrix(0.73, 0.68, -0.68, 0.73, 317.46, 76.09)">t</text><text class="cls-13" transform="matrix(0.7, 0.71, -0.71, 0.7, 323.55, 81.71)"> </text><text class="cls-13" transform="translate(330.46 88.66) rotate(49.03)">C</text><text class="cls-13" transform="matrix(0.61, 0.8, -0.8, 0.61, 339.88, 99.49)">a</text><text class="cls-13" transform="matrix(0.57, 0.82, -0.82, 0.57, 348.9, 111.48)">l</text><text class="cls-13" transform="matrix(0.54, 0.84, -0.84, 0.54, 353.21, 117.6)">e</text><text class="cls-13" transform="translate(360.71 129.37) rotate(60.4)">n</text><text class="cls-13" transform="translate(368.32 142.78) rotate(62.99)">d</text><text class="cls-13" transform="translate(375.17 156.22) rotate(65.29)">a</text><text class="cls-13" transform="translate(381.46 169.96) rotate(67.03)">r</text></g></svg>